<?xml version="1.0" standalone="no"?>
<!DOCTYPE svg PUBLIC "-//W3C//DTD SVG 20010904//EN"
 "http://www.w3.org/TR/2001/REC-SVG-20010904/DTD/svg10.dtd">
<svg version="1.0" xmlns="http://www.w3.org/2000/svg"
 width="174.000000pt" height="174.000000pt" viewBox="0 0 174.000000 174.000000"
 preserveAspectRatio="xMidYMid meet">
<metadata>
Created by potrace 1.14, written by Peter Selinger 2001-2017
</metadata>
<g transform="translate(0.000000,174.000000) scale(0.100000,-0.100000)"
fill="#000000" stroke="none">
<path d="M825 1500 c-4 -6 -25 -10 -48 -8 -25 1 -42 -3 -45 -10 -2 -7 -10 -12
-18 -12 -8 0 -17 -7 -20 -15 -4 -8 -13 -15 -21 -15 -8 0 -12 -4 -9 -9 3 -4 -4
-17 -17 -27 -21 -19 -21 -19 -7 1 14 18 14 19 -2 7 -10 -8 -14 -20 -11 -29 4
-11 2 -14 -5 -9 -7 4 -12 1 -12 -8 0 -9 -5 -16 -11 -16 -5 0 -7 -5 -3 -12 5
-8 2 -9 -11 -4 -16 6 -16 4 -4 -11 9 -11 10 -14 2 -9 -7 4 -13 4 -14 -1 -4
-49 -32 -85 -57 -75 -15 5 -15 3 -4 -10 9 -11 10 -18 2 -23 -6 -3 -7 -11 -4
-17 4 -7 2 -8 -5 -4 -9 6 -9 12 1 24 12 15 11 16 -4 3 -10 -7 -15 -17 -12 -22
3 -5 -1 -9 -8 -9 -10 0 -9 -3 2 -11 12 -8 12 -12 2 -16 -10 -4 -10 -8 0 -21
11 -13 11 -14 -1 -8 -11 7 -13 1 -9 -26 3 -26 0 -34 -9 -31 -14 6 -14 -22 1
-46 6 -9 5 -12 0 -8 -6 3 -16 2 -24 -4 -13 -7 -13 -9 -1 -9 11 0 10 -4 -5 -16
-10 -8 -13 -12 -5 -8 9 4 12 3 7 -4 -3 -6 -2 -13 4 -17 6 -4 7 -13 1 -23 -5
-10 -7 -34 -4 -54 2 -20 0 -46 -7 -57 -8 -16 -8 -20 2 -17 7 1 10 1 6 -1 -5
-3 -8 -12 -8 -21 0 -14 -2 -14 -9 -3 -6 10 -8 1 -7 -24 2 -22 8 -41 15 -43 7
-2 9 3 5 15 -5 15 -4 15 5 3 13 -18 14 -47 3 -52 -16 -6 -65 -79 -68 -101 -3
-23 -11 -58 -14 -67 -1 -3 -1 -13 0 -23 3 -30 -22 -73 -51 -89 -32 -19 -47
-64 -48 -146 0 -29 -5 -60 -9 -70 -9 -18 -8 -93 3 -149 l6 -33 739 0 740 0 0
263 0 263 -29 46 c-35 56 -86 87 -201 124 -47 15 -91 34 -99 43 -12 15 -13 14
-8 -1 4 -11 1 -18 -7 -18 -11 0 -27 42 -25 66 0 3 -9 14 -20 23 -12 10 -21 28
-21 40 0 11 -4 21 -10 21 -5 0 -10 11 -10 25 0 14 -4 25 -10 25 -5 0 -10 7
-10 15 0 8 -5 15 -10 15 -6 0 -9 3 -9 8 4 21 -2 42 -10 38 -10 -6 -25 24 -16
32 3 3 5 -1 5 -8 0 -7 2 -11 5 -8 10 9 -7 38 -19 32 -6 -3 -3 1 7 9 16 13 16
15 2 21 -13 4 -14 10 -5 26 8 15 8 20 -2 20 -9 0 -9 3 2 10 8 5 10 10 5 10 -6
0 -12 12 -13 28 -3 51 -5 62 -15 62 -5 0 -7 9 -4 20 3 13 0 20 -9 20 -8 0 -14
5 -14 11 0 5 4 8 9 5 5 -4 4 5 -2 19 -7 14 -15 25 -19 25 -5 0 -8 7 -8 16 0
10 -6 14 -15 10 -8 -3 -14 -2 -14 2 3 17 -2 32 -8 31 -23 -4 -43 2 -38 11 3 6
-4 10 -15 10 -15 0 -20 5 -17 14 4 10 0 12 -14 9 -11 -3 -19 0 -19 6 0 7 4 9
10 6 6 -3 7 1 3 10 -4 13 -8 14 -13 4 -6 -9 -17 -7 -45 9 -20 12 -45 22 -56
22 -14 0 -18 4 -13 13 5 7 0 6 -11 -3 -11 -9 -16 -10 -11 -2 5 9 -2 12 -28 12
-19 0 -38 -5 -41 -10z m465 -620 c0 -5 -2 -10 -4 -10 -3 0 -8 5 -11 10 -3 6
-1 10 4 10 6 0 11 -4 11 -10z"/>
<path d="M544 1312 c4 -7 1 -12 -6 -12 -10 0 -10 -2 1 -9 9 -6 10 -10 2 -14
-8 -4 -8 -5 0 -3 16 3 20 34 7 43 -7 3 -8 1 -4 -5z"/>
<path d="M520 1249 c0 -5 5 -7 10 -4 6 3 10 8 10 11 0 2 -4 4 -10 4 -5 0 -10
-5 -10 -11z"/>
<path d="M404 943 c-4 -10 -8 -23 -9 -30 0 -7 -9 -19 -20 -27 -11 -9 -15 -15
-10 -15 14 0 46 25 44 35 -3 18 1 34 9 32 4 -2 8 1 10 7 6 18 -15 16 -24 -2z"/>
<path d="M335 820 c3 -5 8 -10 11 -10 2 0 4 5 4 10 0 6 -5 10 -11 10 -5 0 -7
-4 -4 -10z"/>
</g>
</svg>
